  <svg width="16" height="16" viewBox="0 0 16 16" fill="none"
                                xmlns="http://www.w3.org/2000/svg">
                                <path
                                    d="M11.1425 0.5H4.8575C2.1275 0.5 0.5 2.1275 0.5 4.8575V11.135C0.5 13.8725 2.1275 15.5 4.8575 15.5H11.135C13.865 15.5 15.4925 13.8725 15.4925 11.1425V4.8575C15.5 2.1275 13.8725 0.5 11.1425 0.5ZM12.5 8.5625H8.5625V12.5C8.5625 12.8075 8.3075 13.0625 8 13.0625C7.6925 13.0625 7.4375 12.8075 7.4375 12.5V8.5625H3.5C3.1925 8.5625 2.9375 8.3075 2.9375 8C2.9375 7.6925 3.1925 7.4375 3.5 7.4375H7.4375V3.5C7.4375 3.1925 7.6925 2.9375 8 2.9375C8.3075 2.9375 8.5625 3.1925 8.5625 3.5V7.4375H12.5C12.8075 7.4375 13.0625 7.6925 13.0625 8C13.0625 8.3075 12.8075 8.5625 12.5 8.5625Z"
                                    fill="white" />
                            </svg>
